<svg width="118" height="118" viewBox="0 0 118 118" fill="none" xmlns="http://www.w3.org/2000/svg">
<circle cx="59" cy="59" r="59" fill="#FFD83D"/>
<path d="M70.4097 37.7037C70.4097 36.1235 70.976 34.7778 72.1086 33.6667C73.2412 32.5556 74.6003 32 76.186 32C77.7968 32 79.1685 32.5556 80.3011 33.6667C81.4337 34.7778 82 36.1235 82 37.7037C82 39.2593 81.4337 40.6049 80.3011 41.7407C79.1685 42.8519 77.7968 43.4074 76.186 43.4074C74.6255 43.4074 73.2664 42.8519 72.1086 41.7407C70.976 40.6049 70.4097 39.2593 70.4097 37.7037ZM70.7117 47.9259H81.698V82H70.7117V47.9259Z" fill="black"/>
<path d="M47.5548 54.4426H37.5973C37.5973 51.1619 37.7332 48.5921 38.0051 46.7331C38.2996 44.874 38.8887 43.2337 39.7723 41.8121C40.6786 40.3686 42.0493 39.2204 43.8844 38.3674C45.7423 37.4926 47.94 37.0551 50.4775 37.0551C54.6689 37.0551 57.8861 38.1159 60.1291 40.2374C62.3721 42.3589 63.4936 45.4208 63.4936 49.4232C63.4936 51.4791 63.0631 53.699 62.2022 56.0829C61.3413 58.445 60.0498 61.0476 58.3279 63.8908L52.7545 73.0766H61.8963V82H36L50.8173 57.5592C52.6298 54.6285 53.5361 51.9602 53.5361 49.5544C53.5361 48.3515 53.2642 47.3673 52.7205 46.6018C52.1767 45.8363 51.497 45.4536 50.6814 45.4536C49.39 45.4536 48.5404 45.9566 48.1325 46.9627C47.7474 47.9469 47.5548 49.9043 47.5548 52.8351V54.4426Z" fill="black"/>
</svg>
