<svg width="118" height="118" viewBox="0 0 118 118" fill="none" xmlns="http://www.w3.org/2000/svg">
<circle cx="59.0001" cy="59" r="59" fill="white"/>
<path d="M21 61.4754C21 59.2663 22.7909 57.4754 25 57.4754H60.5342V67.6393H25C22.7909 67.6393 21 65.8485 21 63.6393V61.4754Z" fill="#6B3712"/>
<path d="M60.5343 90C28.6027 90 23.1941 77.1446 23.0274 69.6721L60.5343 69.6721L60.5343 90Z" fill="#FF8732"/>
<path d="M60.5343 28C26.5754 28 22.6895 45.2787 22.5206 55.4426H60.5343V28Z" fill="#FF8732"/>
<ellipse cx="30.6302" cy="49.3442" rx="1.52055" ry="2.03279" fill="white"/>
<ellipse cx="41.7808" cy="47.3115" rx="1.52055" ry="2.03279" fill="white"/>
<ellipse cx="50.9041" cy="50.3607" rx="1.52055" ry="2.03279" fill="white"/>
<ellipse cx="47.863" cy="41.2131" rx="1.52055" ry="2.03279" fill="white"/>
<ellipse cx="55.9726" cy="43.2459" rx="1.52055" ry="2.03279" fill="white"/>
<ellipse cx="53.9452" cy="33.082" rx="1.52055" ry="2.03279" fill="white"/>
<ellipse cx="41.7808" cy="35.1148" rx="1.52055" ry="2.03279" fill="white"/>
<ellipse cx="35.6987" cy="42.2295" rx="1.52055" ry="2.03279" fill="white"/>
<path d="M74.5351 28C79.0534 28 82.8357 28.4921 85.8818 29.4762C88.9786 30.4603 91.2886 32.0812 92.8116 34.3389C94.3854 36.5966 95.1723 39.6069 95.1723 43.3698C95.1723 45.8011 94.7662 47.972 93.9539 49.8824C93.1924 51.7348 92.0247 53.2979 90.4509 54.5714C88.9279 55.7871 87.0494 56.6265 84.8156 57.0896V57.5238C87.1002 57.929 89.1563 58.6816 90.984 59.7815C92.8624 60.8814 94.3347 62.4444 95.4008 64.4706C96.4669 66.4967 97 69.1307 97 72.3725C97 76.1354 96.2385 79.3483 94.7154 82.0112C93.1924 84.6162 91.0094 86.6134 88.1663 88.0028C85.3741 89.3343 82.0234 90 78.1142 90H59V28H74.5351ZM75.9058 54.3978C80.5765 54.3978 83.7749 53.5584 85.501 51.8795C87.2271 50.1429 88.0902 47.5957 88.0902 44.2381C88.0902 40.8226 87.024 38.3912 84.8918 36.944C82.8103 35.4388 79.4596 34.6863 74.8397 34.6863H65.8537V54.3978H75.9058ZM65.8537 60.9104V83.4006H76.8196C81.6426 83.4006 84.9933 82.3296 86.8717 80.1877C88.7502 78.0457 89.6894 75.2381 89.6894 71.7647C89.6894 69.5649 89.2578 67.6545 88.3948 66.0336C87.5825 64.4127 86.1864 63.1681 84.2064 62.2997C82.2772 61.3735 79.6373 60.9104 76.2866 60.9104H65.8537Z" fill="#CD0000"/>
</svg>
