<svg width="118" height="118" viewBox="0 0 118 118" fill="none" xmlns="http://www.w3.org/2000/svg">
<circle cx="59" cy="59" r="59" fill="#530D0D"/>
<path d="M90.4911 93.5092C84.3027 96.8237 73.6855 97.7714 58.9996 97.7714C44.3139 97.7714 33.6966 96.8237 27.5091 93.5092C23.7937 91.5241 21.9143 88.8178 21.9143 86.8772C21.9143 85.773 22.5337 85.1403 23.9127 85.1403H94.0853C95.4653 85.1403 96.0847 85.7727 96.0847 86.8772C96.0856 88.8178 94.2051 91.5238 90.4917 93.5092H90.4911ZM94.0856 42.0836H23.9128C22.5328 42.0836 21.9145 41.4073 21.9145 40.1898C21.9145 32.9715 33.3634 20.2286 58.9996 20.2286C84.399 20.2286 96.0857 32.9715 96.0857 40.1898C96.0857 41.4073 95.4665 42.0836 94.0856 42.0836Z" fill="#FF8732"/>
<path d="M36.8615 71.8567C36.6472 71.5413 36.6245 71.338 36.6245 71.2484C36.6245 71.0003 36.7671 70.8203 37.0522 70.5721C37.7187 69.9844 39.3621 68.5189 40.2662 67.1885C40.9563 66.1736 41.2413 65.249 41.2413 64.4831C41.2413 62.5207 39.3619 60.9859 37.3135 60.9859C36.0043 60.9859 34.7668 61.6855 33.9342 62.971C32.8155 64.6847 31.4819 66.6698 30.6259 67.4599C30.4114 67.6633 30.2927 67.7081 30.1265 67.7081C29.8404 67.7081 29.7216 67.5272 29.7216 67.2344V64.9795C29.7216 62.7694 28.3415 60.9867 25.8418 60.9867C23.3187 60.9867 21.9612 62.7685 21.9612 64.9795V78.8734C21.9612 81.0834 23.3177 82.8669 25.8418 82.8669C28.3415 82.8669 29.7216 81.0851 29.7216 78.8734V75.6718C29.7216 75.4004 29.8404 75.1979 30.1265 75.1979C30.5078 75.1979 30.603 75.5592 30.6985 75.7393C31.2458 76.98 32.8392 79.6181 34.3164 81.175C35.3159 82.2125 36.5536 82.8672 37.863 82.8672C40.0765 82.8672 41.9341 81.0398 41.9341 79.0771C41.9341 77.8595 41.3857 76.9573 40.3389 75.8753C39.0053 74.4967 37.4335 72.6918 36.8615 71.8577V71.8567ZM66.5462 59.6997C70.2831 59.6997 72.64 57.444 72.64 54.1511C72.64 52.054 71.3054 50.6099 68.6406 50.6099H67.8798C66.4743 50.6099 65.3793 51.2423 65.3793 52.6631C65.3793 53.9262 66.546 54.5353 67.4267 54.5353C67.8789 54.5353 68.1658 54.6706 68.1658 54.9868C68.1658 55.3917 67.6664 55.6631 67.0943 55.6631C65.3084 55.6631 64.0946 54.4671 64.0946 52.234C64.0946 49.7535 65.7617 48.8523 67.0465 48.8523C68.6172 48.8523 68.8794 49.6191 69.9745 49.6191C71.2364 49.6191 72.0936 48.6266 72.0936 47.5892C72.0936 46.8224 71.7359 46.2365 71.1886 45.8298C70.1889 45.1302 68.7851 44.6124 66.6905 44.6124C62.9998 44.6124 59.4062 46.9129 59.4062 52.2358C59.4044 57.3312 62.9991 59.6997 66.5462 59.6997ZM24.698 59.5644H28.0555C31.2215 59.5644 33.149 57.5571 33.149 55.0531C33.149 53.0456 31.887 52.1212 31.6019 51.8954C31.4839 51.805 31.3649 51.7154 31.3649 51.6249C31.3649 51.5129 31.4357 51.4672 31.5556 51.3319C32.0068 50.8357 32.4591 50.0465 32.4591 48.8954C32.4591 46.19 30.5307 44.7451 27.5317 44.7451H24.6989C22.8186 44.7451 21.9143 45.7842 21.9143 47.1817V57.1278C21.9143 58.5271 22.8186 59.5644 24.698 59.5644ZM26.1035 48.6257C26.1035 48.3328 26.2943 48.1062 26.6982 48.1062H27.0078C28.031 48.1062 28.3415 48.7825 28.3415 49.3701C28.3415 49.9112 28.0327 50.678 27.0078 50.678H26.6991C26.2941 50.678 26.1033 50.4531 26.1033 50.1593L26.1035 48.6257ZM26.1035 53.9038C26.1035 53.6108 26.2943 53.3842 26.6982 53.3842H27.1269C28.2699 53.3842 28.6022 54.1054 28.6022 54.7602C28.6022 55.3478 28.269 56.1818 27.1269 56.1818H26.6992C26.2943 56.1818 26.1035 55.9561 26.1035 55.6623V53.9038ZM86.8503 59.6764C88.3735 59.6764 89.2062 58.5934 89.2062 57.2407V54.8498C89.2062 54.5567 89.3495 54.4216 89.5877 54.4216C89.8728 54.4216 89.9672 54.5793 90.0143 54.8498C90.2295 56 90.8004 57.5561 91.4424 58.3461C92.2525 59.3619 93.0132 59.6783 93.7758 59.6783C95.0124 59.6783 96.0848 58.7528 96.0848 57.6017C96.0848 56.8349 95.7516 56.2706 95.3229 55.7527C94.5131 54.7835 94.014 54.1522 93.7053 53.3627C93.6334 53.1818 93.6808 53.0232 93.896 52.8663C94.6341 52.3252 95.4912 51.1293 95.4912 49.2356C95.4912 46.3708 92.9909 44.7467 89.9674 44.7467H87.2787C85.3982 44.7467 84.4942 45.7832 84.4942 47.1824V57.2423C84.4942 58.595 85.3268 59.6763 86.8512 59.6763L86.8503 59.6764ZM88.9447 49.01C88.9447 48.717 89.1354 48.4896 89.5396 48.4896H89.8726C90.8732 48.4896 91.1819 49.1668 91.1819 49.7535C91.1819 50.3179 90.8732 51.0614 89.8726 51.0614H89.5396C89.1345 51.0614 88.9447 50.8374 88.9447 50.5427V49.0091V49.01ZM47.7167 60.9852C45.051 60.9852 43.5982 62.8789 43.5982 65.2474V78.6012C43.5982 80.9705 45.051 82.8643 47.7167 82.8643C50.3822 82.8643 51.8341 80.9698 51.8341 78.6012V65.2474C51.8341 62.8805 50.3833 60.9852 47.7167 60.9852ZM90.0388 69.6691H88.8729C86.7784 69.6691 85.1596 70.5936 85.1596 72.6226C85.1596 74.4725 86.9211 75.3521 88.23 75.3521C88.8729 75.3521 89.325 75.5331 89.325 76.0061C89.325 76.592 88.5633 76.9754 87.7543 76.9754C85.0641 76.9754 83.231 75.2384 83.231 72.0126C83.231 68.4267 85.7307 67.1188 87.6581 67.1188C90.015 67.1188 90.3955 68.2475 92.0377 68.2475C93.9415 68.2475 95.2271 66.7809 95.2271 65.2922C95.2271 64.1877 94.7034 63.3301 93.8707 62.7437C92.418 61.7279 90.2293 60.9832 87.1339 60.9832C81.5883 60.9832 76.1843 64.2985 76.1843 72.0126C76.1843 79.3877 81.5864 82.8393 86.9196 82.8393C92.5124 82.8393 96.0594 79.5689 96.0594 74.7869C96.0609 71.7662 94.0627 69.6691 90.0388 69.6691ZM81.0412 59.5644C82.3759 59.5644 83.4227 58.82 83.4227 57.4666C83.4227 56.1353 82.375 55.391 81.0421 55.391H78.8996C78.4956 55.391 78.3047 55.1662 78.3047 54.8724V54.4433C78.3047 54.1503 78.4956 53.9246 78.9005 53.9246H80.5429C81.6862 53.9246 82.5905 53.2707 82.5905 52.1196C82.5905 50.9702 81.686 50.3154 80.5429 50.3154H78.8999C78.4957 50.3154 78.305 50.0897 78.305 49.7959V49.4349C78.305 49.1419 78.4957 48.9162 78.9008 48.9162H81.0424C82.3754 48.9162 83.423 48.1718 83.423 46.8191C83.423 45.4871 82.3753 44.7427 81.0424 44.7427H76.5438C74.6646 44.7427 73.7592 45.78 73.7592 47.1792V57.1255C73.7592 58.5238 74.6637 59.562 76.5438 59.562H81.0424V59.5647H81.0414M40.1473 59.6764C44.0033 59.6764 46.0506 57.488 46.0506 54.7378V47.136C46.0506 45.7833 45.2181 44.6994 43.6938 44.6994C42.1703 44.6994 41.3377 45.7833 41.3377 47.136V54.4888C41.3377 55.029 41.0045 55.6606 40.1474 55.6606C39.2904 55.6606 39.0035 55.029 39.0035 54.4888V47.136C39.0035 45.7833 38.1473 44.6994 36.623 44.6994C35.0997 44.6994 34.267 45.7833 34.267 47.136V54.7369C34.268 57.489 36.2918 59.6757 40.1476 59.6757L40.1473 59.6764ZM56.8577 59.6764C58.0955 59.6764 59.1676 58.7519 59.1676 57.6009C59.1676 56.834 58.8344 56.2697 58.4059 55.7519C57.7158 54.8946 57.0966 54.1502 56.7879 53.3618C56.7162 53.1809 56.7636 53.0224 56.9787 52.8647C57.7169 52.3245 58.574 51.1286 58.574 49.234C58.574 46.3692 56.0735 44.7451 53.0501 44.7451H50.3591C48.4796 44.7451 47.5744 45.7825 47.5744 47.1817V57.2416C47.5744 58.5943 48.4081 59.6783 49.9314 59.6783C51.4549 59.6783 52.2884 58.5943 52.2884 57.2416V54.8515C52.2884 54.5586 52.4308 54.4225 52.6688 54.4225C52.9548 54.4225 53.0492 54.5801 53.0965 54.8515C53.3109 56.0009 53.8817 57.5569 54.5246 58.3479C55.3342 59.3611 56.095 59.6764 56.8577 59.6764ZM52.9536 51.0605H52.6195C52.2146 51.0605 52.0248 50.8357 52.0248 50.5419V49.0091C52.0248 48.7162 52.2155 48.4896 52.6195 48.4896H52.9527C53.9532 48.4896 54.2619 49.1668 54.2619 49.7535C54.2619 50.3161 53.9532 51.0605 52.9527 51.0605H52.9536ZM70.5438 60.9852C68.0925 60.9852 66.7595 62.7213 66.7595 64.9097V69.7811C66.7595 70.1861 66.6161 70.3679 66.3546 70.3679C66.1639 70.3679 66.0214 70.2558 65.8553 69.9396L62.5468 63.8508C61.2847 61.5271 59.9755 60.9862 58.4765 60.9862C55.977 60.9862 54.596 62.7671 54.596 65.0012V78.9408C54.596 81.1291 55.9289 82.8655 58.3803 82.8655C60.8326 82.8655 62.1645 81.1284 62.1645 78.9408V74.0692C62.1645 73.6644 62.308 73.4816 62.5696 73.4816C62.7603 73.4816 62.9037 73.5945 63.069 73.9107L66.3773 80.0004C67.6393 82.3241 68.9959 82.8652 70.4485 82.8652C72.9481 82.8652 74.3291 81.0833 74.3291 78.8502V64.9106C74.3291 62.7221 72.9959 60.986 70.5438 60.986V60.9852Z" fill="#D62300"/>
</svg>
