<svg width="118" height="118" viewBox="0 0 118 118" fill="none" xmlns="http://www.w3.org/2000/svg">
<circle cx="59" cy="59" r="59" fill="#00516E"/>
<path d="M30.6923 48.2C25.7692 48.2 19 48.2 19 59.6C19 69.8 27 70.4 33.7692 69.8V58.4M33.7692 47V58.4M33.7692 58.4H43V47V70.4" stroke="white" stroke-width="2"/>
<path d="M47.9231 47V70.4" stroke="white" stroke-width="2"/>
<path d="M63.923 69.8C60.0256 69.8 52.2307 67.64 52.2307 59C52.2307 49.4 60.2307 47.6 66.9999 48.2V59.3M66.9999 70.4V59.3M66.9999 59.3L76.2307 48.2M66.9999 59.3L76.2307 69.8" stroke="white" stroke-width="2"/>
<circle cx="88" cy="59" r="11" fill="#095B72" stroke="white" stroke-width="2"/>
<path fill-rule="evenodd" clip-rule="evenodd" d="M85.863 59C84.9437 59.7997 84.6597 61.1361 85.5014 62.1381C86.3432 63.1401 87.7505 63.2812 88.7461 62.4943C89.5738 61.8401 91.3196 59.8601 91.8847 59.2112C91.9479 59.1386 91.9795 59.1023 91.9919 59.0599C92.0027 59.023 92.0027 58.9825 91.9919 58.9456C91.9795 58.9032 91.9479 58.8669 91.8847 58.7943C91.3196 58.1454 89.5738 56.1654 88.7461 55.5111C87.7505 54.7243 86.3343 54.8481 85.5014 55.8674C84.6685 56.8866 84.9437 58.2003 85.863 59Z" fill="#095B72" stroke="#960000" stroke-width="1.5" stroke-linecap="round" stroke-linejoin="round"/>
<rect x="10" y="41" width="98" height="36" rx="17.5" stroke="white" stroke-width="2"/>
</svg>
