<svg width="118" height="118" viewBox="0 0 118 118" fill="none" xmlns="http://www.w3.org/2000/svg">
<circle cx="59.0001" cy="59" r="59" fill="black"/>
<path d="M61.6119 24.0012C82.1935 24.0012 98 38.0223 98 58.8312C98 79.7514 82.1935 94 61.6119 94H38.5296C33.867 94 30 90.9467 30 85.6328V32.7072C30 27.3921 33.867 24 38.5296 24L61.6119 24.0012Z" fill="#FF6900"/>
<path d="M46.0595 60.6775C46.0595 54.2309 43.976 48.3693 44.6604 44.6975L44.494 44.4851C42.1234 46.9349 40.5813 46.2873 40.4137 45.4982C40.0762 43.9188 42.8511 41.9854 44.4365 41.3135C44.467 41.2102 44.508 41.1022 44.5514 40.9932C43.0679 41.2195 41.3254 41.0338 41.2645 39.9824C41.193 38.736 43.7194 37.6231 47.0215 37.8993C47.0837 37.8471 47.1481 37.7948 47.2125 37.7426C47.0051 37.6602 46.7825 37.5581 46.5048 37.4165C45.6517 36.9813 45.4443 36.2583 45.7232 35.7326C46.029 35.1547 46.963 34.9296 47.7199 34.9458C48.9082 34.9702 49.9194 35.2557 50.6588 35.5528C50.742 35.5179 50.8264 35.4831 50.9061 35.4529C50.6319 35.2406 50.3928 35.0096 50.2534 34.7729C50.0495 34.4259 49.9991 33.9489 50.394 33.6403C50.8557 33.2793 52.0275 33.1517 53.0868 34.1045C53.3059 34.3006 53.4911 34.4921 53.6587 34.6754C53.777 34.6534 53.8954 34.6302 54.0149 34.6116C53.8403 34.3447 53.7008 34.0662 53.6563 33.8074C53.5942 33.4534 53.7114 33.0728 54.1309 32.9382C54.5891 32.7908 55.1691 33.024 55.4703 33.4662C55.7925 33.9397 55.9906 34.5222 56.1148 34.9365C53.7794 35.2058 47.5852 36.6065 47.5852 44.0209C47.5852 51.2508 53.6505 58.8462 53.6505 70.0532C53.6411 74.1253 52.7341 78.2103 49.0066 82.9683C46.1286 86.6425 41.5562 90.1878 34.427 93.0983C35.6492 93.689 37.0483 94 38.5295 94H41.0922C46.9899 90.7645 49.9171 87.7983 51.9455 85.0154C55.9003 86.7608 59.7052 87.5105 63.1339 87.5105C69.5624 87.5105 75.0418 84.5779 77.8987 79.3476C80.8387 77.5999 82.7886 74.007 82.9117 71.4399C84.7432 69.1584 85.0819 66.2781 84.5194 64.3342C84.3846 63.8712 84.005 63.8573 83.3464 64.2542C77.5542 67.6939 71.9447 69.3313 66.5919 69.3313C63.346 69.3313 60.0169 68.8207 56.4745 67.8053C56.2214 64.0453 55.4422 60.8922 55.1515 58.9809C54.7379 56.4568 55.3261 54.5895 58.1232 54.5895C60.1751 54.5895 63.9717 55.106 67.0056 56.4719C70.0101 57.825 71.7982 60.4883 73.0474 60.4883C73.5548 60.4883 74.088 60.1762 74.088 59.1132C74.088 56.9593 73.3122 53.4917 72.3478 52.2558C75.159 52.0968 77.3925 52.1258 78.6486 52.2662C81.2665 52.7165 81.3895 54.0174 81.9051 54.8657C82.4207 55.7141 83.2949 56.0831 84.346 56.0831C86.2923 56.0831 87.5063 55.0886 87.5063 51.4991C87.5063 43.6147 82.4804 39.7932 77.2097 39.7932C72.8822 39.7932 71.2112 40.7355 67.1016 40.7355C64.1862 40.7355 61.7711 34.8611 58.4584 34.0894C56.9948 30.8667 53.7137 30.5034 51.6924 32.1223C49.8573 31.0164 46.9876 31.6129 46.8692 33.6542C44.7576 33.0066 42.0308 34.1346 43.2061 36.8827C38.0432 37.0277 37.0799 41.549 40.5836 42.0539C36.0733 44.5814 38.1346 48.9472 41.9195 48.0188C42.1867 51.1197 43.4557 56.126 43.4557 59.5832C43.4557 64.3911 41.2539 65.5075 38.2435 65.5075C35.8648 65.5075 32.3728 64.6522 30.0069 63.9838V67.3364C32.4009 67.926 35.9913 68.6826 38.6853 68.6826C43.4276 68.6838 46.0595 65.9276 46.0595 60.6775ZM56.5202 71.5688C59.7696 72.4623 64.2612 72.9393 67.9875 72.6805C74.5368 72.2256 79.4537 69.8106 82.2215 68.0525C80.5587 72.2117 74.3223 74.7949 68.2758 75.5261C68.2371 75.8289 68.1914 76.1249 68.1363 76.4104C72.6724 76.1713 76.98 74.7114 78.9322 73.378C77.8155 77.4687 72.267 79.1132 67.2305 79.3499C67.0887 79.6714 66.9388 79.9742 66.7841 80.262C69.7171 80.3143 72.5259 79.7758 74.1993 79.2536C72.6935 82.1003 67.4965 84.3493 62.2035 84.3493C59.6021 84.3493 56.3562 83.8468 53.5391 82.5192C55.5746 78.8312 56.3585 75.0514 56.5202 71.5688ZM69.621 48.5074C70.3347 46.4011 70.9545 44.8124 72.1123 43.6008C73.3321 42.3242 74.6867 41.925 77.6608 41.925C81.768 41.925 85.199 46.0367 85.199 51.7835C85.199 52.6376 84.0413 52.6318 83.6698 51.8508C82.273 49.4079 80.3806 49.0563 77.3995 48.8393C75.2 48.7116 72.547 48.8961 70.1308 48.9983C69.6796 49.0215 69.5531 48.7093 69.621 48.5074Z" fill="black"/>
<path d="M30 77.5615C32.4819 77.073 34.9239 76.6204 34.9239 76.6204L35.2356 75.2951C34.1154 75.2394 31.8936 75.2649 30 75.316V77.5615Z" fill="black"/>
<path d="M56.7489 37.991C57.616 37.702 58.8616 38.5492 59.5284 39.8768C60.1952 41.2044 60.0311 42.5204 59.164 42.8035C58.3039 43.1053 57.0641 42.2581 56.3938 40.9235C56.3036 40.7437 56.2321 40.5649 56.1723 40.3885L56.3235 40.3468C56.6012 40.6079 56.9328 40.6798 57.1543 40.5394C57.459 40.341 57.4273 39.8141 57.1695 39.3592C56.9856 38.9867 56.5602 38.5967 56.2087 38.6257L56.1477 38.5468C56.279 38.2811 56.4782 38.0838 56.7489 37.991ZM62.827 51.3506C58.9437 50.5058 54.6935 49.3894 52.4272 46.0901C52.3851 46.0286 52.3077 46.0007 52.2351 46.0216C52.1636 46.0413 52.112 46.1063 52.1085 46.1806C52.1003 46.3605 52.1249 46.5577 52.1659 46.7539L51.8589 46.8688C51.2613 46.0355 51.1394 45.0236 51.7324 44.2959C52.5854 43.2492 54.3162 43.3559 55.3497 44.0023L55.2185 44.2843C54.6642 44.1927 54.1357 44.1927 53.7233 44.441C53.3729 44.6522 53.3248 44.9655 53.5405 45.3624C55.4224 48.8265 60.8947 49.5785 67.3971 49.0772C68.0685 49.025 68.2232 48.7255 68.3099 48.4053C68.8747 46.1748 69.8989 44.1857 71.4234 42.6701C70.2375 42.8349 69.1349 42.872 68.1728 42.9242C64.8144 43.1343 62.8938 42.6979 62.2939 42.2233L62.4028 41.9343C62.7602 42.0562 63.1317 42.084 63.2079 41.9796C63.3122 41.8392 63.2325 41.751 63.0684 41.6082C62.431 41.0164 59.5659 38.1082 59.5718 38.1244C59.2624 35.6653 55.6462 35.576 54.2049 37.9956L53.7151 37.8656C53.858 37.3353 54.0725 36.9024 54.2717 36.5879C51.2519 37.2633 49.534 39.9476 49.2223 42.5401C47.8841 53.6844 64.9503 51.1092 69.8286 55.5725C69.9212 55.6444 70.1532 55.9717 70.3196 55.7651C70.5094 55.1582 68.3603 52.5633 62.827 51.3506Z" fill="white"/>
<path d="M82.2169 68.0455C79.4502 69.8025 74.5286 72.2209 67.9829 72.6759C64.2589 72.9346 59.7615 72.4554 56.5144 71.5618C56.4641 72.6341 56.3551 73.7412 56.1688 74.8587C57.9991 75.3241 61.2579 75.9392 65.9592 76.0715C65.7495 77.3236 64.4663 81.5722 61.1806 84.3191C67.1697 84.5675 72.5963 82.2616 74.1923 79.2466C72.519 79.7688 69.709 80.3073 66.7771 80.2551C66.9318 79.9684 67.0818 79.6644 67.2236 79.3429C72.2577 79.1073 77.8085 77.4594 78.9253 73.371C76.973 74.7032 72.662 76.1643 68.1294 76.4034C68.1845 76.1179 68.2302 75.8231 68.2688 75.5191C74.3142 74.7891 80.5552 72.2012 82.2169 68.0455Z" fill="white"/>
</svg>
