<svg width="118" height="118" viewBox="0 0 118 118" fill="none" xmlns="http://www.w3.org/2000/svg">
<circle cx="59" cy="59" r="59" fill="#00516E"/>
<path d="M53.2179 60.6354C55.5432 60.5484 57.4516 62.4569 57.3647 64.7822L56.3802 91.0999C56.2497 94.5894 52.0237 96.248 49.5546 93.7788L24.2213 68.4455C21.7521 65.9764 23.4107 61.7504 26.9002 61.6199L53.2179 60.6354Z" fill="#FFEA00"/>
<path d="M60.6353 64.782C60.5484 62.4567 62.4568 60.5483 64.7821 60.6352L91.0998 61.6197C94.5893 61.7502 96.2479 65.9761 93.7787 68.4453L68.4454 93.7786C65.9762 96.2478 61.7503 94.5892 61.6198 91.0997L60.6353 64.782Z" fill="#0BF350"/>
<path d="M53.2179 57.3647C55.5431 57.4516 57.4516 55.5432 57.3646 53.2179L56.3801 26.9002C56.2496 23.4107 52.0237 21.7521 49.5545 24.2213L24.2212 49.5546C21.752 52.0238 23.4106 56.2497 26.9001 56.3802L53.2179 57.3647Z" fill="#E40000"/>
<path d="M64.782 57.3647C62.4567 57.4517 60.5483 55.5432 60.6353 53.218L61.6197 26.9002C61.7503 23.4107 65.9762 21.7521 68.4454 24.2213L93.7787 49.5546C96.2478 52.0238 94.5893 56.2497 91.0998 56.3802L64.782 57.3647Z" fill="#04EAFA"/>
</svg>
