<svg width="118" height="118" viewBox="0 0 118 118" fill="none" xmlns="http://www.w3.org/2000/svg">
<circle cx="59" cy="59" r="59" fill="black"/>
<path fill-rule="evenodd" clip-rule="evenodd" d="M79.4318 58.9957C79.4318 64.6332 77.4437 69.4467 73.4619 73.4191C69.4745 77.3972 64.6553 79.3862 59.0045 79.3862C53.3764 79.3862 48.5572 77.4029 44.564 73.4191C40.5766 69.4467 38.5714 64.6332 38.5714 58.9957C38.5714 53.3752 40.5709 48.5845 44.564 44.595C48.5686 40.6169 53.3821 38.6165 59.0045 38.6165C64.6553 38.6165 69.4745 40.6113 73.4619 44.595C77.438 48.5845 79.4318 53.3752 79.4318 58.9957ZM33.325 55.2393C35.1194 54.0174 36.0194 52.4205 35.8656 48.7663V39.3724C35.8485 38.0596 33.4617 37.9005 33.3421 39.3724L33.251 46.9932C33.2453 48.4197 31.0977 48.4651 31.1034 46.9932L31.1946 39.111C31.1661 37.7016 28.8875 37.5595 28.859 39.111C28.859 41.2989 28.7679 44.8053 28.7679 46.9932C28.8818 48.3742 26.8881 48.5561 26.9393 46.9932L27.0305 39.1621C26.9792 38.0994 25.8058 37.7186 25.0083 38.2187C24.1595 38.7586 24.3304 39.8441 24.2962 40.759L24 49.7495C24.0456 52.3637 24.7348 54.4891 26.7855 55.3927C27.0988 55.5291 27.5318 55.6371 28.0331 55.7109L27.3267 77.6359C27.2868 78.9373 28.3521 80 29.5996 80H29.8844C31.2914 80 32.482 78.8009 32.4421 77.3404L31.8212 55.7053C32.4763 55.603 33.0174 55.4495 33.325 55.2393ZM84.8035 76.9767L84.7693 57.2851C77.8482 53.2957 80.0527 37.9232 86.9795 38.0085C95.3988 38.1051 96.3957 55.3302 89.1556 57.2226L89.691 77.0562C89.7936 80.807 84.8092 81.1536 84.8035 76.9767ZM70.8986 58.9787C70.8986 62.2634 69.7422 65.0651 67.4124 67.3895C65.0882 69.7024 62.2799 70.8674 58.9874 70.8674C55.7176 70.8674 52.9093 69.7024 50.5852 67.3895C48.261 65.0651 47.099 62.2634 47.099 58.9787C47.099 55.7166 48.261 52.9149 50.5852 50.6019C52.915 48.289 55.7176 47.124 58.9874 47.124C65.6009 47.1296 70.8986 52.375 70.8986 58.9787ZM73.6841 58.9787C73.6841 54.9437 72.26 51.4942 69.3947 48.6356C66.5294 45.7771 63.0603 44.3563 58.9874 44.3563C54.9258 44.3563 51.4681 45.7771 48.6199 48.6356C45.7546 51.4942 44.3134 54.9437 44.3134 58.9787C44.3134 63.0249 45.7546 66.4745 48.6199 69.3444C51.4681 72.2086 54.9258 73.6464 58.9874 73.6464C63.0546 73.6464 66.5237 72.2086 69.3947 69.3444C72.2543 66.4688 73.6841 63.0193 73.6841 58.9787Z" fill="white"/>
</svg>
