<svg width="118" height="118" viewBox="0 0 118 118" fill="none" xmlns="http://www.w3.org/2000/svg">
<circle cx="59" cy="59" r="59" fill="#C30000"/>
<path d="M44.5785 87.8799C38.8977 87.8799 34.2896 63.7725 34.2896 34L26 34C26 66.0533 34.3628 92 44.6029 92C50.4544 92 55.6232 84.2258 59.0366 72.0127C62.4499 84.2258 67.6188 92 73.4215 92C83.6616 92 92 66.0778 92 34.0245L83.7104 34.0245C83.7104 63.797 79.1511 87.8799 73.4703 87.8799C67.7894 87.8799 63.1814 65.6118 63.1814 38.1446L54.9405 38.1446C54.9405 65.6118 50.3081 87.8799 44.6273 87.8799" fill="#FFCC00"/>
</svg>
