<svg width="118" height="118" viewBox="0 0 118 118" fill="none" xmlns="http://www.w3.org/2000/svg">
<circle cx="59" cy="59" r="59" fill="black"/>
<path d="M67.604 34.1818C53.9779 28.5959 32.4623 25.3538 32.0396 33.8695C31.617 42.3851 44.9387 44.1368 46.6233 44.2976C48.3079 44.4584 48.8266 42.2475 54.0902 41.2905C58.8781 40.5778 61.8645 41.0076 62.9758 40.4696C64.087 39.9315 66.5223 37.648 67.6055 34.1818H67.604Z" fill="#F08941"/>
<path d="M33.3418 39.6696C39.9398 46.7582 55.3584 46.6021 63.6086 48.7898C86.7911 54.8828 85.6725 60.2723 85.971 61.4442C85.5232 66.6003 78.8409 67.6934 78.8409 67.6934C78.8409 67.6934 76.8623 65.1934 64.6548 63.9442C61.7052 63.3196 48.7885 63.5144 41.8816 57.8512C39.3428 55.5862 38.8581 54.2195 37.0287 49.2969C35.3884 45.2879 34.5269 42.3056 33.3418 39.6696Z" fill="#E94943"/>
<path d="M43.6726 65.8396C47.5782 67.7459 53.7669 70.1423 61.6476 70.702C72.8281 71.4951 81.5378 68.1726 85.9326 66.1133C84.7593 73.9626 82.3417 79.2269 80.7428 82.1273C79.138 85.037 77.7622 86.6202 75.9106 87.7225C74.1477 88.7723 71.94 89.4355 69.2638 89.3335C67.6088 89.2701 66.0941 89.0614 64.7139 88.763C62.8402 88.3579 60.7566 87.6823 58.4233 86.5583C54.1792 84.516 50.1347 82.5695 47.1733 78.2313C44.0657 73.6766 43.649 68.6767 43.6741 65.8396H43.6726Z" fill="#8BC056"/>
</svg>
