<svg width="118" height="118" viewBox="0 0 118 118" fill="none" xmlns="http://www.w3.org/2000/svg">
<circle cx="59" cy="59" r="59" fill="#625918"/>
<path d="M97.7004 77C96.4039 77 95.4351 76.7156 94.7941 76.1468C94.1677 75.578 93.7525 74.7904 93.5486 73.784C93.3592 72.7777 93.2645 71.6255 93.2645 70.3275C93.2645 69.4815 93.2864 68.6575 93.3301 67.8553C93.3883 67.0532 93.4175 66.3531 93.4175 65.7551C93.4175 64.6613 93.3374 63.808 93.1771 63.1955C93.0169 62.5683 92.7401 62.1235 92.3467 61.861C91.9534 61.5984 91.3925 61.4672 90.6642 61.4672H89.7245V75.4467H91.8442V76.6281H82.3168V75.4467H84.5238V47.1814H82.3168V46H92.019C93.3009 46 94.4591 46.2479 95.4934 46.7438C96.5277 47.2251 97.3508 47.9908 97.9626 49.0409C98.5745 50.0765 98.8804 51.4328 98.8804 53.1101C98.8804 54.4081 98.6838 55.5239 98.2904 56.4573C97.8971 57.3907 97.3799 58.1637 96.7389 58.7763C96.1125 59.3888 95.4278 59.8629 94.6849 60.1983C93.9565 60.5192 93.2499 60.7307 92.5653 60.8327C94.2406 60.9057 95.5152 61.2119 96.3893 61.7516C97.2634 62.2766 97.8534 63.0715 98.1593 64.1362C98.4798 65.1863 98.6401 66.5646 98.6401 68.271C98.6401 68.9711 98.6182 69.6638 98.5745 70.3493C98.5454 71.0348 98.5308 71.6838 98.5308 72.2964C98.5308 72.7631 98.5526 73.2444 98.5963 73.7403C98.6401 74.2216 98.7202 74.63 98.8367 74.9654C98.9533 75.2863 99.1208 75.4467 99.3393 75.4467C99.5141 75.4467 99.6452 75.3811 99.7326 75.2498C99.82 75.1186 99.871 74.9654 99.8856 74.7904H101C100.942 75.3009 100.752 75.7238 100.432 76.0593C100.126 76.3801 99.7326 76.6135 99.2519 76.7593C98.7857 76.9198 98.2686 77 97.7004 77ZM89.7245 60.2639H90.839C91.4508 60.2639 91.9534 59.9649 92.3467 59.367C92.7401 58.7544 93.0314 57.9158 93.2208 56.8511C93.4248 55.7864 93.5267 54.5686 93.5267 53.1976C93.5267 51.9141 93.432 50.8276 93.2427 49.9379C93.0679 49.0336 92.7838 48.3482 92.3904 47.8814C92.0117 47.4147 91.5164 47.1814 90.9045 47.1814H89.7245V60.2639Z" fill="white"/>
<path d="M64.9343 76.6281V75.4467H67.0102V47.1814H64.9343V46H78.5043V53.307H77.3024C77.3024 52.1256 77.1568 51.0755 76.8654 50.1567C76.5886 49.2232 76.1734 48.494 75.6198 47.9689C75.0808 47.4439 74.3961 47.1814 73.5658 47.1814H72.2765V60.7015H76.0569V58.4481H77.215V64.0924H76.0569V61.9047H72.2765V75.4467H73.5658C74.3816 75.4467 75.0663 75.1769 75.6198 74.6373C76.1734 74.0976 76.5886 73.3611 76.8654 72.4277C77.1568 71.4942 77.3024 70.4368 77.3024 69.2555H78.5043V76.6281H64.9343Z" fill="white"/>
<path d="M54.0774 76.65L49.0952 47.1814H47.1504V46H56.503V47.1814H54.733L57.2459 64.0049H56.8744L59.4529 47.1814H57.7922V46H62.687V47.1814H60.7641L56.0004 76.65H54.0774Z" fill="white"/>
<path d="M35.1118 76.6281V75.4467H37.2314V47.1814H35.1118V46H44.5955V47.1814H42.4322V75.4467H44.5955V76.6281H35.1118Z" fill="white"/>
<path d="M23.927 76.65L18.9448 47.1814H17V46H26.3526V47.1814H24.5826L27.0955 64.0049H26.724L29.3026 47.1814H27.6418V46H32.5366V47.1814H30.6137L25.85 76.65H23.927Z" fill="white"/>
</svg>
